<?xml version="1.0" encoding="UTF-8" standalone="no"?>
<svg
   viewBox="0 0 512 512"
   version="1.1"
   id="svg1"
   width="512"
   height="512"
   xmlns="http://www.w3.org/2000/svg"
   xmlns:svg="http://www.w3.org/2000/svg">
  <defs
     id="defs1" />
  <!--! Font Awesome Pro 6.4.2 by @fontawesome - https://fontawesome.com License - https://fontawesome.com/license (Commercial License) Copyright 2023 Fonticons, Inc. -->
  <path
     fill="#101642"
     d="M 371.36103,14.889352 C 238.42032,-32.524473 92.26907,37.051002 44.778459,170.20701 -2.712152,303.36302 66.42523,449.72202 199.36594,497.13585 c 65.23245,23.26541 133.61998,18.29256 192.05021,-8.43212 7.26341,-3.35499 11.58056,-11.03687 10.51623,-18.93935 -1.06433,-7.90249 -7.14807,-14.31907 -15.03623,-15.67637 -11.20181,-1.93243 -22.31176,-4.80281 -33.39913,-8.75716 C 249.18969,408.12923 194.83397,293.12959 232.15077,188.49932 257.41255,117.66936 318.16298,69.810218 387.13171,57.764448 c 7.91001,-1.425656 13.93441,-7.770612 14.93039,-15.666299 0.99597,-7.895691 -3.28942,-15.612273 -10.59417,-18.945562 -6.58963,-2.956903 -13.25605,-5.698517 -20.14529,-8.155591 z"
     id="path1"
     style="stroke-width:1.14286" />
</svg>
